<svg width="40" height="40" viewBox="0 0 40 40" fill="none" xmlns="http://www.w3.org/2000/svg">
<path d="M34.1422 5.85781C30.3647 2.08031 25.3422 0 20 0C14.6578 0 9.63531 2.08031 5.85781 5.85781C2.08031 9.63531 0 14.6578 0 20C0 25.3422 2.08039 30.3646 5.85781 34.1422C9.63523 37.9198 14.6578 40 20 40C25.3422 40 30.3647 37.9197 34.1422 34.1422C37.9197 30.3647 40 25.3422 40 20C40 14.6578 37.9196 9.63539 34.1422 5.85781Z" fill="#AC6DDE"/>
<path d="M16 14H29" stroke="#F5F5F6" stroke-width="2" stroke-linecap="round" stroke-linejoin="round"/>
<path d="M16 20H29" stroke="#F5F5F6" stroke-width="2" stroke-linecap="round" stroke-linejoin="round"/>
<path d="M16 26H29" stroke="#F5F5F6" stroke-width="2" stroke-linecap="round" stroke-linejoin="round"/>
<path d="M11 14H11.01" stroke="#F5F5F6" stroke-width="2" stroke-linecap="round" stroke-linejoin="round"/>
<path d="M11 20H11.01" stroke="#F5F5F6" stroke-width="2" stroke-linecap="round" stroke-linejoin="round"/>
<path d="M11 26H11.01" stroke="#F5F5F6" stroke-width="2" stroke-linecap="round" stroke-linejoin="round"/>
</svg>
